<svg width="24" height="24" viewBox="0 0 24 24" fill="none" xmlns="http://www.w3.org/2000/svg">
<path d="M10.9854 13.0059L10.9785 13.0088L10.9942 13.0146L15.957 15L10.9942 16.9854L11 17L10.9912 16.9785L10.9854 16.9941L9.00002 21.957L7.01466 16.9941L7.00002 17L7.0215 16.9912L7.00587 16.9854L2.04201 15L7.00587 13.0146L7.0088 13.0215L7.01466 13.0059L9.00002 8.04199L10.9854 13.0059ZM17.9863 6.00391L17.9795 6.00684L17.9961 6.0127L21.9551 7.49902L17.9961 8.98535L18.001 9L17.9932 8.97754L17.9863 8.99414L16.5 12.9551L15.0147 8.99414L15.0225 8.99121L15.0059 8.98535L11.044 7.49902L15.0059 6.0127L15.0088 6.02051L15.0147 6.00391L16.5 2.04395L17.9863 6.00391Z" fill="url(#paint0_linear_144_214)" stroke="#0447D3" stroke-width="0.03125"/>
<defs>
<linearGradient id="paint0_linear_144_214" x1="12" y1="2" x2="12" y2="22" gradientUnits="userSpaceOnUse">
<stop/>
<stop offset="1" stop-color="#3B82F6"/>
</linearGradient>
</defs>
</svg>
